<svg width="20" height="137" viewBox="0 0 20 137" fill="none" xmlns="http://www.w3.org/2000/svg"><path d="M18.578 4.945c0 .805-.133 1.516-.398 2.133a3.716 3.716 0 01-1.23 1.559c-.563.422-1.29.742-2.18.96-.883.212-1.95.317-3.2.317H4.34v6.188H2.875V0h8.695c1.25 0 2.317.11 3.2.328.89.211 1.617.524 2.18.938.562.414.972.93 1.23 1.546.265.618.398 1.329.398 2.133zm-1.512 0c0-.765-.128-1.383-.386-1.851-.25-.469-.64-.828-1.172-1.078-.524-.258-1.192-.43-2.004-.516a27.514 27.514 0 00-2.871-.129H4.34v7.172h6.293c.43 0 .887.004 1.37.012.493 0 .977-.024 1.454-.07a8.21 8.21 0 001.36-.27 3.35 3.35 0 001.148-.598c.336-.265.601-.613.797-1.043.203-.43.304-.972.304-1.629zM4.176 49.21v6.892H2.71V40h8.016c1.226 0 2.277.098 3.152.293.875.188 1.59.477 2.144.867.563.383.973.863 1.23 1.442.259.578.388 1.254.388 2.027 0 1.203-.317 2.168-.95 2.894-.632.72-1.652 1.211-3.058 1.477l5.496 7.102h-1.84l-5.191-6.938a18.204 18.204 0 01-1.371.047h-6.55zm11.953-4.581c0-.688-.121-1.242-.363-1.664-.243-.43-.637-.762-1.184-.996-.547-.235-1.266-.39-2.156-.469-.883-.086-1.969-.129-3.258-.129H4.176v6.469H9.12c1.29 0 2.379-.035 3.27-.106.89-.078 1.613-.23 2.168-.457.554-.234.953-.558 1.195-.972.25-.422.375-.98.375-1.676zM3.648 96.102V80h13.418v1.371H5.242v5.543H16.47v1.36H5.242v6.457h12v1.37H3.648zm7.407 40H8.863L.824 120h1.64L10 135.094 17.535 120h1.63l-8.11 16.102z" fill="#fff"/></svg>