<svg width="140" height="140" viewBox="0 0 140 140" fill="none" xmlns="http://www.w3.org/2000/svg"><circle cx="70" cy="70" r="70" fill="#fff"/><circle cx="70" cy="70" r="61.5" fill="#fff" stroke="#F41E1E"/><path d="M66.326 74.394c-7.414-5.121-15.59-9.203-21.996-15.78l-.492-.017c-.465 2.105-.693 4.427.198 6.45.75 1.846 2.193 3.26 3.735 4.39 4.146 2.973 8.52 5.579 12.66 8.553.935.645 1.555 1.753 1.642 2.924.23 5.077.073 10.167.15 15.248-.005 1.042.394 2.055 1.123 2.767 1.712 1.779 3.567 3.396 5.365 5.071.046-8.378-.098-16.76.1-25.14.182-1.898-.998-3.545-2.485-4.466z" fill="#1D2229"/><path d="M75.443 67.526c0-.044.003-.087.003-.131 0-.157-.007-.312-.019-.465a5.495 5.495 0 00-.946-2.862c-.995-1.553-2.668-2.586-4.575-2.638l-.117-.003h-.042a4.825 4.825 0 00-1.056.106c-2.3.457-4.108 2.365-4.529 4.783l-.014.083c-.005.032-.012.065-.016.098a5.864 5.864 0 00-.031 1.64c.264 2.962 2.94 5.419 5.782 5.24 2.98.076 5.628-2.74 5.56-5.851z" fill="#F41E1E"/><path d="M95.627 58.593C88.68 63.997 81.38 68.886 74.004 73.617c-1.05.69-2.188 1.28-3.053 2.23-.803.911-.87 2.23-.862 3.406l.027.772c.237 7.466-.091 14.942.154 22.405.017.52.036 1.04.059 1.559 1.222-1.131 2.332-2.435 3.62-3.482.865-.745 1.85-1.486 2.244-2.632.403-1.046.3-2.192.319-3.289-.04-4.287.05-8.573-.085-12.855-.012-1.664.941-3.2 2.286-4.03 3.832-2.41 7.672-4.818 11.336-7.504 2.495-1.742 5.031-3.849 6.107-6.891.594-1.513.468-3.161.157-4.724l-.686.011z" fill="#1D2229"/><path d="M99.81 44c-.841 0-1.524.717-1.523 1.6l.002 9.482-56.577.013-.002-9.482c0-.884-.684-1.6-1.525-1.599-.842 0-1.524.717-1.523 1.6l.002 9.482v3.198l.003 9.482c0 .883.683 1.6 1.524 1.599.842 0 1.524-.717 1.524-1.6l-.002-9.482 56.577-.013.002 9.482c0 .883.683 1.6 1.525 1.599.841 0 1.524-.717 1.523-1.6l-.002-9.482-.001-3.198-.002-9.483c0-.883-.683-1.598-1.524-1.598zm4.332 2.148c-.842 0-1.525.717-1.524 1.6l.002 7.332v3.198l.002 7.332c0 .883.683 1.6 1.524 1.598.842 0 1.524-.716 1.524-1.599l-.002-7.332-.001-3.198-.001-7.332c0-.883-.683-1.599-1.524-1.599zm4.332 3.782c-.842 0-1.525.718-1.524 1.6l.001 3.55.001 3.197v3.55c0 .883.684 1.6 1.525 1.599.842 0 1.524-.717 1.523-1.6l-.002-10.297c0-.882-.682-1.598-1.524-1.598zm-72.62-3.765c-.842 0-1.524.716-1.523 1.599l.001 7.332v3.198l.002 7.332c0 .883.683 1.6 1.525 1.598.841 0 1.524-.716 1.523-1.599l-.001-7.332-.001-3.198-.002-7.332c0-.882-.682-1.598-1.524-1.598zm-4.331 3.784c-.841 0-1.524.717-1.523 1.599l.002 10.297c0 .883.683 1.6 1.524 1.599.842 0 1.525-.717 1.524-1.6v-3.553l-.001-3.191-.001-3.553c0-.882-.683-1.598-1.525-1.598z" fill="#F41E1E"/></svg>