<svg width="40" height="40" viewBox="0 0 40 40" fill="none" xmlns="http://www.w3.org/2000/svg"><g clip-path="url(#clip0_147_8)" fill="#fff"><path d="M39.219 38.398h-.922L36.49 32.97A9.216 9.216 0 0040 25.731c0-4.134-2.732-7.643-6.484-8.811v-3.23h.547a2.347 2.347 0 002.343-2.345A2.347 2.347 0 0034.063 9H28.28a2.347 2.347 0 00-2.343 2.345 2.347 2.347 0 002.343 2.345h.547v3.035c-4.033.727-11.204 3.13-16.706 5.08l-4.58-4.858L9.6 11.09c-.038.108.827.745.949.833 1.112.803 2.734 1.07 3.792.013.907-.909.928-2.418.14-3.637 0 0 2.256-2.258 2.26-2.26 1.609-1.612 1.814-4.052.169-5.699a.78.78 0 10-1.106 1.105c1.03 1.03.855 2.488-.152 3.471a.869.869 0 00-.013.013l-2.202 2.204L7.42 1.111C6.344.034 4.353-.466 3.15.738c-1.074 1.074-.907 2.991.373 4.272l2.54 2.542L1.998 19.06a.792.792 0 00.15.776l3.724 4.234-.822.3C2.699 25.21 0 26.569 0 29.64a5.323 5.323 0 003.022 4.797l-1.32 3.96h-.92a.781.781 0 000 1.564h8.593a.781.781 0 000-1.563h-2.9l1.145-3.441h23.161a9.23 9.23 0 001.555-.132l1.19 3.573h-2.901a.781.781 0 000 1.563h8.594a.781.781 0 000-1.563zM28.28 12.128a.783.783 0 010-1.565h5.782a.783.783 0 010 1.564H28.28zm3.672 1.562v2.89a9.269 9.269 0 00-1.172-.074c-.121 0-.252.005-.39.013V13.69h1.562zM4.63 3.905c-.66-.66-.83-1.605-.373-2.062.58-.58 1.59-.097 2.06.374l6.547 6.552c.66.66.83 1.605.373 2.063-.58.581-1.587.098-2.06-.375L4.63 3.905zm2.66 4.872l1.086 1.088-2.364 6.723-1.849 1.036L7.29 8.777zM3.959 19.53l2.532-1.418 4.024 4.268c-1.15.413-2.191.792-3.07 1.113L3.96 19.53zm.868 18.869H3.35l1.166-3.501c.26.04.527.06.798.06h.66l-1.146 3.44zm25.954-5.004H5.313a3.756 3.756 0 01-3.75-3.753c0-1.68 1.162-2.78 4.012-3.8.226-.08 22.521-7.772 25.206-7.772 4.222 0 7.657 3.437 7.657 7.662s-3.435 7.663-7.657 7.663zm4.392 5.004L33.85 34.43a9.279 9.279 0 001.288-.57l1.512 4.538h-1.478z"/><path d="M30.078 20.728a5.007 5.007 0 00-4.919 5.896l-2.58.902a2.346 2.346 0 00-2.11-1.325h-1.875a2.347 2.347 0 00-2.344 2.345 2.347 2.347 0 002.344 2.345h1.875a2.348 2.348 0 002.27-1.765l2.936-1.027a5.004 5.004 0 004.403 2.636c2.757 0 5-2.245 5-5.004a5.007 5.007 0 00-5-5.003zm-9.61 8.6h-1.874a.783.783 0 010-1.564h1.875a.783.783 0 010 1.564zm9.61-.156a3.437 3.437 0 01-2.9-1.598l3.158-1.105a.782.782 0 00-.516-1.475l-3.16 1.105a3.443 3.443 0 013.418-3.808 3.443 3.443 0 013.438 3.44 3.443 3.443 0 01-3.438 3.44zM9.14 27.298a.802.802 0 00-.745-.547c-.077-.001-1.402.397-1.987.58l-.014.004c-1.322.445-2.332 1.648-2.332 3.087a.782.782 0 001.563 0c0-.754.574-1.37 1.258-1.602l1.744-.544a.783.783 0 00.514-.978zm2.266.119a.781.781 0 100-1.562.781.781 0 000 1.562z"/></g><defs><clipPath id="clip0_147_8"><path fill="#fff" d="M0 0h40v40H0z"/></clipPath></defs></svg>