<svg width="40" height="40" viewBox="0 0 40 40" fill="none" xmlns="http://www.w3.org/2000/svg"><path d="M37.852 9.648h-.977V7.891a2.151 2.151 0 00-2.148-2.149h-1.563a2.151 2.151 0 00-2.148 2.149v3.32H25.19a2.147 2.147 0 00-3.628-.887 2.145 2.145 0 00-3.125 0 2.145 2.145 0 00-3.125 0 2.146 2.146 0 00-3.63.887H8.985V7.89a2.152 2.152 0 00-2.148-2.149H5.273A2.152 2.152 0 003.125 7.89v1.757h-.977A2.152 2.152 0 000 11.797v3.125a2.151 2.151 0 002.148 2.148h.977v1.758a2.151 2.151 0 002.148 2.149h1.563a2.152 2.152 0 002.148-2.149v-3.32h2.93v6.765a3.1 3.1 0 00.664 1.912l1.836 2.326v1.959a2.152 2.152 0 00-1.601 2.077v3.125a.586.586 0 00.585.586h12.5a.586.586 0 00.586-.586v-3.125a2.152 2.152 0 00-1.562-2.067v-1.84l1.978-1.184a3.102 3.102 0 001.5-2.647v-7.106c0-.066 0-.131-.009-.195h2.625v3.32a2.152 2.152 0 002.148 2.149h1.563a2.152 2.152 0 002.148-2.149V17.07h.977A2.151 2.151 0 0040 14.922v-3.125a2.151 2.151 0 00-2.148-2.149zm-34.727 6.25h-.977a.978.978 0 01-.976-.976v-3.125a.978.978 0 01.976-.977h.977v5.078zm4.688 2.93a.978.978 0 01-.977.977H5.273a.978.978 0 01-.976-.977V7.891a.978.978 0 01.976-.977h1.563a.978.978 0 01.976.977v10.937zm1.171-4.492v-1.953h2.618s0 1.889.009 1.953H8.984zm13.164-2.54a.977.977 0 011.954 0v1.759s-1.89 0-1.954.01v-1.768zm-3.125 0a.977.977 0 011.954 0v2.25a2.144 2.144 0 00-.586 2.55.966.966 0 01-1.081-.203.979.979 0 01-.287-.69v-3.906zm-3.125 0a.977.977 0 011.954 0v3.126a.976.976 0 11-1.954 0v-3.125zm-3.125 2.345v-2.344a.977.977 0 011.954 0v2.344a.977.977 0 01-1.954 0zm12.54 16.406v2.539h-11.33v-2.54a.978.978 0 01.977-.976h9.375a.978.978 0 01.977.977zm1.914-7.74a1.923 1.923 0 01-.93 1.64l-2.267 1.356a.585.585 0 00-.284.502v2.093h-8.16v-2.091a.587.587 0 00-.126-.362l-1.962-2.486a1.92 1.92 0 01-.412-1.186v-6.09a2.143 2.143 0 001.882-.274 2.145 2.145 0 003.125.782 2.144 2.144 0 003.079.809c.348.228.755.35 1.172.35h1.62v.658a3.72 3.72 0 00-2.44 3.508v.25a.586.586 0 001.171 0v-.248a2.556 2.556 0 011.988-2.5.587.587 0 00.454-.571v-1.681a.586.586 0 00-.586-.586h-2.207a.977.977 0 110-1.953h3.906a.978.978 0 01.977.976v7.104zm3.789-8.471h-3.11a2.146 2.146 0 00-1.656-.781h-.977v-1.172h5.743v1.953zm4.687 4.492a.978.978 0 01-.976.977h-1.563a.978.978 0 01-.977-.977V7.891a.978.978 0 01.977-.977h1.563a.978.978 0 01.976.977v10.937zm3.125-3.906a.978.978 0 01-.976.976h-.977V10.82h.977a.978.978 0 01.976.977v3.125z" fill="#fff"/></svg>