<svg width="40" height="40" viewBox="0 0 40 40" fill="none" xmlns="http://www.w3.org/2000/svg"><g clip-path="url(#clip0_147_2)" fill="#fff"><path d="M25.42 22.13l-3.764-1.738c-2.288-1.058-5.182.061-7.272 2.542l-3.286-1.796c-.729-.339-1.755.282-2.243 1.334a2.717 2.717 0 00-.246 1.57 1.275 1.275 0 00.645.986l3.043 1.667c-1.26 3.798-.315 7.597 2.368 8.833l3.764 1.738c.59.271 1.232.41 1.882.407a6.018 6.018 0 003.056-.916 10.304 10.304 0 003.946-4.575c1.928-4.168 1.079-8.682-1.892-10.052zM9.875 23.948a.467.467 0 01-.032-.115c-.032-.286.02-.575.147-.833a1.32 1.32 0 01.631-.7l3.005 1.644c-.322.488-.608.998-.853 1.529l-.02.047-2.878-1.572zM13.907 26c1.638-3.547 4.878-5.552 7.226-4.47l.922.426c-.55.16-1.079.39-1.572.684a10.301 10.301 0 00-3.946 4.574 10.314 10.314 0 00-.924 5.972c.098.565.266 1.116.5 1.639l-.916-.425c-2.353-1.087-2.929-4.855-1.29-8.4zm12.272 5.667a9.06 9.06 0 01-3.45 4.023 4.029 4.029 0 01-3.776.447 4.032 4.032 0 01-2.107-3.167 9.056 9.056 0 01.825-5.236 9.053 9.053 0 013.45-4.023 4.794 4.794 0 012.417-.738c.467-.002.93.097 1.355.29 2.349 1.084 2.924 4.853 1.286 8.404z"/><path d="M10.383 29.587a3.751 3.751 0 01-3.159.128c-1.357-.627-2.182-2.23-2.208-4.288a.625.625 0 00-.625-.616h-.009a.626.626 0 00-.616.633 7.391 7.391 0 00.626 2.963l-.933-.43a4.036 4.036 0 01-2.108-3.167 9.062 9.062 0 01.826-5.236 9.056 9.056 0 013.45-4.023 4.037 4.037 0 013.813-.431l.906.417a9.434 9.434 0 00-5.54 5.25 11.486 11.486 0 00-.818 2.451.625.625 0 101.223.259c.16-.754.405-1.487.73-2.186 1.638-3.547 4.879-5.557 7.226-4.47a4.096 4.096 0 012.136 3.344.626.626 0 001.238-.178 5.361 5.361 0 00-2.85-4.301l-3.764-1.74a5.249 5.249 0 00-4.938.508 10.306 10.306 0 00-3.947 4.574c-1.927 4.18-1.079 8.692 1.893 10.065L6.7 30.85a4.445 4.445 0 001.874.402 5.709 5.709 0 002.32-.523.626.626 0 00-.51-1.142zm18.999-4.119a.625.625 0 00.015 1.25h.02a4.544 4.544 0 10-4.282-6.355.625.625 0 101.146.5 3.295 3.295 0 113.105 4.607l-.004-.002z"/><path d="M38.94 5.424a6.685 6.685 0 00-5.657-3.098h-7.896a6.713 6.713 0 00-6.09 9.534l2.107 4.55a9.855 9.855 0 00-1.179 2.123.625.625 0 001.16.465 8.607 8.607 0 011.217-2.106 8.465 8.465 0 011.96-1.816c.005 0 .008-.007.013-.008a8.53 8.53 0 119.035 14.464h-4.277a.625.625 0 100 1.25h4.441c.108 0 .213-.03.306-.083a9.748 9.748 0 003.153-14.216l2.142-4.624a6.686 6.686 0 00-.434-6.435zm-.7 5.91l-1.89 4.084a9.837 9.837 0 00-1.22-1.073l1.697-3.667a3.903 3.903 0 00-3.544-5.544H32.5a.625.625 0 000 1.25h.78a2.653 2.653 0 012.41 3.77l-1.617 3.496a9.768 9.768 0 00-9.49-.043l-1.6-3.453a2.652 2.652 0 012.409-3.77h5.242a.625.625 0 000-1.25h-5.247a3.905 3.905 0 00-3.542 5.546l1.672 3.607c-.437.32-.847.676-1.224 1.065l-1.861-4.019a5.462 5.462 0 014.956-7.759h7.895a5.462 5.462 0 014.958 7.758v.002z"/></g><defs><clipPath id="clip0_147_2"><path fill="#fff" d="M0 0h40v40H0z"/></clipPath></defs></svg>