<svg width="40" height="40" viewBox="0 0 40 40" fill="none" xmlns="http://www.w3.org/2000/svg"><g clip-path="url(#clip0_139_20)" fill="#fff"><path d="M37.5 6.875h-4.375V2.5A1.875 1.875 0 0031.25.625H8.75A1.875 1.875 0 006.875 2.5v4.375H2.5A1.875 1.875 0 00.625 8.75V30A1.875 1.875 0 002.5 31.875h12.273a6.592 6.592 0 00-1.617 3.75H12.5a1.875 1.875 0 100 3.75h15a1.875 1.875 0 100-3.75h-.656a6.592 6.592 0 00-1.617-3.75H37.5A1.875 1.875 0 0039.375 30V8.75A1.875 1.875 0 0037.5 6.875zm0 1.25a.625.625 0 01.625.625v16.875h-1.25V10a.625.625 0 00-.625-.625h-3.125v-1.25H37.5zM8.75 24.375h22.5a1.875 1.875 0 001.875-1.875V10.625h2.5v15H4.375v-15h2.5V22.5a1.875 1.875 0 001.875 1.875zm-.625-18.75h6.844a5.575 5.575 0 00-.594 2.5 5.625 5.625 0 1011.25 0c0-.868-.204-1.724-.594-2.5h6.844V22.5a.624.624 0 01-.625.625H8.75a.625.625 0 01-.625-.625V5.625zm16.25 2.5a4.375 4.375 0 11-8.75 0 4.375 4.375 0 018.75 0zM8.75 1.875h22.5a.625.625 0 01.625.625v1.875h-7.694a5.598 5.598 0 00-8.362 0H8.125V2.5a.625.625 0 01.625-.625zM2.5 8.125h4.375v1.25H3.75a.625.625 0 00-.625.625v15.625h-1.25V8.75a.625.625 0 01.625-.625zM28.125 37.5a.624.624 0 01-.625.625h-15a.624.624 0 110-1.25h15a.624.624 0 01.625.625zm-4.085-5.076a5.362 5.362 0 011.546 3.201H14.414a5.362 5.362 0 011.546-3.2l.549-.55h6.982l.549.55zm13.46-1.799h-35A.625.625 0 011.875 30v-3.125h36.25V30a.624.624 0 01-.625.625z"/><path d="M11.25 19.375h.625V20A1.867 1.867 0 0015 21.387 1.867 1.867 0 0018.125 20v-.625h3.75V20A1.867 1.867 0 0025 21.387 1.867 1.867 0 0028.125 20v-.625h.625a1.875 1.875 0 100-3.75h-.625V15A1.867 1.867 0 0025 13.613 1.866 1.866 0 0021.875 15v.625h-3.75V15A1.867 1.867 0 0015 13.613 1.866 1.866 0 0011.875 15v.625h-.625a1.875 1.875 0 000 3.75zm17.5-2.5a.625.625 0 010 1.25h-.625v-1.25h.625zm-2.5-2.5a.625.625 0 01.625.625v5a.625.625 0 11-1.25 0v-5a.625.625 0 01.625-.625zM23.125 15a.625.625 0 111.25 0v5a.625.625 0 11-1.25 0v-5zm-1.25 1.875v1.25h-3.75v-1.25h3.75zm-5.625-2.5a.625.625 0 01.625.625v5a.625.625 0 11-1.25 0v-5a.625.625 0 01.625-.625zM13.125 15a.625.625 0 111.25 0v5a.625.625 0 11-1.25 0v-5zm-1.875 1.875h.625v1.25h-.625a.625.625 0 110-1.25zm6.546-11.782a.624.624 0 00-.296.532v5a.625.625 0 00.904.56l5-2.5a.625.625 0 000-1.12l-5-2.5a.625.625 0 00-.608.028zm.954 1.543l2.977 1.489-2.977 1.489V6.636zM20 30a1.25 1.25 0 100-2.5 1.25 1.25 0 000 2.5z"/></g><defs><clipPath id="clip0_139_20"><path fill="#fff" d="M0 0h40v40H0z"/></clipPath></defs></svg>