<svg width="80" height="70" viewBox="0 0 80 70" fill="none" xmlns="http://www.w3.org/2000/svg"><path d="M64 7.774a8.12 8.12 0 015.657 2.278 7.67 7.67 0 012.343 5.5 7.67 7.67 0 01-2.343 5.5A8.118 8.118 0 0164 23.328a8.117 8.117 0 01-5.657-2.278A7.67 7.67 0 0156 15.55a7.67 7.67 0 012.343-5.499A8.117 8.117 0 0164 7.774zm7.08 21.73c-1.84 12.383-6.816 23.07-17.912 33.849a3.89 3.89 0 00-.868 1.263 3.8 3.8 0 000 2.98c.201.473.496.902.868 1.264.372.361.813.648 1.3.844a4.105 4.105 0 003.065 0 4.016 4.016 0 001.299-.844C75.784 52.37 80 35.71 80 15.552c0-3.381-1.134-6.67-3.23-9.368-2.094-2.698-5.036-4.66-8.38-5.587a16.431 16.431 0 00-10.152.447c-3.244 1.217-5.992 3.429-7.827 6.3a15.213 15.213 0 00-2.346 9.613 15.35 15.35 0 004.082 9.047 16.122 16.122 0 008.864 4.833 16.41 16.41 0 0010.069-1.332zM16 7.775a8.12 8.12 0 015.657 2.278 7.67 7.67 0 012.343 5.5 7.67 7.67 0 01-2.343 5.5A8.118 8.118 0 0116 23.328a8.117 8.117 0 01-5.657-2.278A7.67 7.67 0 018 15.551a7.67 7.67 0 012.343-5.499A8.117 8.117 0 0116 7.774zm7.08 21.73c-1.84 12.383-6.816 23.07-17.912 33.849a3.88 3.88 0 00-.868 1.263 3.8 3.8 0 000 2.98c.201.473.496.902.868 1.264.372.361.813.648 1.3.844a4.104 4.104 0 003.065 0 4.016 4.016 0 001.299-.844C27.784 52.37 32 35.71 32 15.552c0-3.381-1.134-6.67-3.23-9.368-2.094-2.698-5.036-4.66-8.38-5.587a16.432 16.432 0 00-10.152.447c-3.244 1.217-5.992 3.429-7.827 6.3a15.213 15.213 0 00-2.346 9.613 15.35 15.35 0 004.082 9.047 16.122 16.122 0 008.864 4.833 16.41 16.41 0 0010.069-1.332z" fill="#F41E1E"/></svg>