<svg width="175" height="50" viewBox="0 0 175 50" fill="none" xmlns="http://www.w3.org/2000/svg"><path d="M158.717 50V23.447h-9.711v-5.113H175v5.113h-9.662V50h-6.621zm-22.415 0V18.334h6.621V50h-6.621zm-34.016 0V18.334h6.621v13.423l12.163-13.424h7.602l-11.427 12.834L129.261 50h-7.063l-9.073-14.604-4.218 4.573V50h-6.621zM65.707 25.328c-6.474-4.268-13.613-7.67-19.206-13.15l-.43-.014c-.406 1.754-.605 3.69.173 5.375.655 1.538 1.915 2.716 3.261 3.657 3.62 2.478 7.44 4.65 11.055 7.129a3.26 3.26 0 011.433 2.437c.2 4.23.064 8.472.13 12.706a3.131 3.131 0 00.982 2.306c1.495 1.482 3.114 2.83 4.684 4.226.04-6.982-.086-13.967.088-20.95.158-1.582-.872-2.954-2.17-3.722z" fill="#fff"/><path d="M73.668 19.605l.002-.11c0-.13-.006-.259-.016-.386a4.44 4.44 0 00-.826-2.385 4.96 4.96 0 00-4.097-2.201h-.037a4.974 4.974 0 00-4.877 4.074l-.012.069-.014.082c-.074.45-.087.91-.027 1.366.231 2.468 2.566 4.516 5.049 4.367 2.601.063 4.914-2.284 4.855-4.876z" fill="#F41E1E"/><path d="M91.291 12.161c-6.066 4.504-12.44 8.578-18.88 12.52-.916.576-1.911 1.066-2.666 1.859-.702.759-.76 1.858-.753 2.838.009.214.016.429.024.643.206 6.221-.08 12.451.134 18.671.015.433.032.866.052 1.299 1.067-.942 2.036-2.03 3.161-2.901.755-.621 1.615-1.239 1.96-2.194.35-.872.26-1.827.277-2.74-.035-3.573.044-7.145-.074-10.714-.01-1.386.822-2.665 1.996-3.358 3.347-2.007 6.7-4.015 9.899-6.253 2.178-1.452 4.393-3.207 5.332-5.743.518-1.26.41-2.634.137-3.936l-.599.009z" fill="#fff"/><path d="M94.944 0a1.33 1.33 0 00-1.33 1.333l.001 7.902-49.4.01-.003-7.901a1.331 1.331 0 10-2.661 0l.002 7.903v2.664l.003 7.903a1.331 1.331 0 102.66-.001l-.001-7.902 49.401-.011.002 7.902a1.331 1.331 0 102.661 0l-.002-7.903V9.234l-.002-7.902C96.275.596 95.678 0 94.944 0zm3.782 1.79c-.735 0-1.331.598-1.33 1.333v6.11l.001 2.665.002 6.11a1.331 1.331 0 102.661 0l-.001-6.11-.001-2.665-.001-6.11c0-.736-.596-1.332-1.331-1.332zm3.782 3.152c-.735 0-1.331.598-1.331 1.333l.001 2.958.001 2.665v2.958a1.332 1.332 0 102.662 0l-.002-8.582c0-.735-.595-1.332-1.331-1.332zM39.1 1.804a1.33 1.33 0 00-1.33 1.332v6.11l.002 2.665v6.11a1.33 1.33 0 102.662 0l-.001-6.11V9.246l-.002-6.11c0-.736-.596-1.332-1.331-1.332zm-3.781 3.153a1.33 1.33 0 00-1.33 1.333l.001 8.58a1.331 1.331 0 102.661 0v-2.961l-.001-2.66V6.29c0-.735-.596-1.332-1.331-1.332z" fill="#F41E1E"/><path d="M28.317 50V18.334h6.62V50h-6.62zM0 50V18.334h22.218v5.163H6.62v8.113h13.782v5.114H6.621V50H0z" fill="#fff"/></svg>