<svg width="76" height="65" viewBox="0 0 76 65" fill="none" xmlns="http://www.w3.org/2000/svg"><path d="M0 7.995a8 8 0 1016 0 8 8 0 00-16 0zm60 49a8 8 0 1016 0 8 8 0 00-16 0zM8 9.495c9.125 0 15.122 2.921 19.582 7.235 4.534 4.384 7.558 10.273 10.57 16.425 2.966 6.054 5.94 12.412 10.372 17.203 4.522 4.887 10.54 8.137 19.476 8.137v-3c-8.065 0-13.296-2.875-17.274-7.175-4.068-4.397-6.844-10.289-9.879-16.485-2.987-6.098-6.213-12.46-11.18-17.262C24.629 9.7 17.876 6.495 8 6.495v3z" fill="#F41E1E"/></svg>