<svg width="50" height="50" viewBox="0 0 50 50" fill="none" xmlns="http://www.w3.org/2000/svg"><g clip-path="url(#clip0_217_18)" fill="#fff"><path d="M31.776 27.663l-4.706-2.174c-2.86-1.321-6.477.078-9.09 3.179l-4.107-2.245c-.912-.424-2.195.352-2.804 1.667a3.395 3.395 0 00-.308 1.962 1.593 1.593 0 00.807 1.233l3.803 2.084c-1.574 4.748-.393 9.497 2.96 11.041l4.706 2.172c.737.34 1.54.513 2.352.51a7.523 7.523 0 003.82-1.146 12.88 12.88 0 004.933-5.719c2.41-5.21 1.348-10.852-2.366-12.564zm-19.433 2.271a.585.585 0 01-.04-.142c-.04-.358.024-.72.183-1.042a1.65 1.65 0 01.789-.875l3.756 2.055c-.403.61-.76 1.248-1.066 1.91l-.025.06-3.597-1.966zm5.04 2.566c2.048-4.434 6.098-6.94 9.033-5.589l1.153.534a8.503 8.503 0 00-1.965.855 12.875 12.875 0 00-4.933 5.718 12.893 12.893 0 00-1.154 7.464 8.51 8.51 0 00.625 2.05L18.996 43c-2.94-1.358-3.66-6.069-1.613-10.5zm15.341 7.083a11.326 11.326 0 01-4.312 5.03 5.036 5.036 0 01-4.72.558 5.04 5.04 0 01-2.635-3.959 11.32 11.32 0 011.032-6.544 11.315 11.315 0 014.312-5.03 5.992 5.992 0 013.02-.921 4.03 4.03 0 011.696.362c2.935 1.355 3.655 6.066 1.607 10.504z"/><path d="M12.98 36.984a4.689 4.689 0 01-3.95.16c-1.696-.784-2.728-2.787-2.76-5.36a.782.782 0 00-.781-.77h-.01a.78.78 0 00-.772.791 9.239 9.239 0 00.784 3.703l-1.167-.537a5.042 5.042 0 01-2.635-3.959 11.328 11.328 0 011.032-6.544 11.321 11.321 0 014.312-5.03A5.046 5.046 0 0111.8 18.9l1.132.52a11.794 11.794 0 00-6.924 6.563c-.455.98-.798 2.008-1.023 3.065a.781.781 0 101.529.323c.2-.942.507-1.859.912-2.733 2.048-4.433 6.099-6.945 9.032-5.587a5.12 5.12 0 012.671 4.18.78.78 0 001.53.082.765.765 0 00.017-.305 6.703 6.703 0 00-3.562-5.376l-4.705-2.174a6.563 6.563 0 00-6.173.634 12.883 12.883 0 00-4.933 5.718c-2.41 5.224-1.349 10.865 2.366 12.58l4.706 2.172a5.557 5.557 0 002.343.503 7.133 7.133 0 002.9-.654.781.781 0 10-.639-1.427zm23.748-5.149a.781.781 0 00.019 1.563h.024a5.68 5.68 0 10-5.352-7.945.781.781 0 001.432.625 4.12 4.12 0 113.881 5.76l-.004-.003z"/><path d="M48.676 6.78a8.357 8.357 0 00-7.072-3.873h-9.87a8.392 8.392 0 00-7.613 11.918l2.634 5.686a12.322 12.322 0 00-1.474 2.656.781.781 0 001.45.58 10.757 10.757 0 011.522-2.633 10.582 10.582 0 012.45-2.27c.006 0 .01-.008.016-.01a10.664 10.664 0 1111.294 18.082h-5.346a.781.781 0 100 1.562h5.55a.779.779 0 00.383-.104 12.187 12.187 0 003.942-17.77l2.677-5.78a8.357 8.357 0 00-.543-8.044zm-.875 7.388l-2.364 5.104a12.22 12.22 0 00-1.526-1.34l2.122-4.584a4.88 4.88 0 00-4.429-6.93h-.979a.781.781 0 100 1.562h.976a3.317 3.317 0 013.011 4.713l-2.02 4.37a12.209 12.209 0 00-11.863-.054l-2-4.316a3.318 3.318 0 013.01-4.713h6.554a.782.782 0 000-1.562h-6.559a4.881 4.881 0 00-4.428 6.932l2.09 4.51c-.546.4-1.058.844-1.53 1.33l-2.326-5.023a6.826 6.826 0 016.194-9.7h9.87a6.828 6.828 0 016.197 9.699v.002z"/></g><defs><clipPath id="clip0_217_18"><path fill="#fff" d="M0 0h50v50H0z"/></clipPath></defs></svg>