<svg width="200" height="200" viewBox="0 0 200 200" fill="none" xmlns="http://www.w3.org/2000/svg"><g clip-path="url(#clip0_217_23)" fill="#252A31"><path d="M127.104 110.65l-18.825-8.692c-11.441-5.287-25.908.309-36.358 12.713l-16.43-8.979c-3.645-1.696-8.779 1.408-11.216 6.666a13.584 13.584 0 00-1.23 7.85 6.376 6.376 0 003.226 4.934l15.212 8.333c-6.295 18.992-1.57 37.987 11.842 44.167l18.82 8.687a22.298 22.298 0 009.409 2.038 30.091 30.091 0 0015.279-4.584 51.512 51.512 0 0019.734-22.875c9.637-20.837 5.391-43.408-9.463-50.258zm-77.733 9.087a2.325 2.325 0 01-.163-.57 7.534 7.534 0 01.738-4.167 6.603 6.603 0 013.154-3.5l15.025 8.221a58.191 58.191 0 00-4.267 7.641c-.033.08-.062.159-.1.238l-14.387-7.863zM69.533 130c8.192-17.738 24.392-27.763 36.13-22.354l4.612 2.133a33.988 33.988 0 00-7.858 3.421 51.5 51.5 0 00-19.734 22.871 51.568 51.568 0 00-4.616 29.858 34.164 34.164 0 002.5 8.196L75.983 172c-11.762-5.433-14.641-24.275-6.45-42zm61.363 28.333a45.302 45.302 0 01-17.25 20.117 20.144 20.144 0 01-18.88 2.233A20.157 20.157 0 0184.23 164.85a45.277 45.277 0 014.125-26.179 45.256 45.256 0 0117.25-20.117 23.961 23.961 0 0112.084-3.687 16.11 16.11 0 016.779 1.45c11.741 5.42 14.621 24.262 6.429 42.016z"/><path d="M51.917 147.937a18.75 18.75 0 01-15.796.638c-6.784-3.134-10.913-11.146-11.042-21.438a3.125 3.125 0 00-3.125-3.083h-.041a3.118 3.118 0 00-2.862 1.967 3.125 3.125 0 00-.222 1.199 36.953 36.953 0 003.133 14.813l-4.666-2.15A20.174 20.174 0 016.754 124.05a45.314 45.314 0 014.13-26.18 45.283 45.283 0 0117.25-20.116 20.183 20.183 0 0118.874-2.238c.063.031.127.06.192.084l4.53 2.083a47.178 47.178 0 00-27.697 26.25 57.425 57.425 0 00-4.091 12.258 3.125 3.125 0 005.026 3.072 3.121 3.121 0 001.086-1.78 51.441 51.441 0 013.65-10.929C37.896 88.82 54.1 78.77 65.834 84.204a20.479 20.479 0 0110.683 16.721 3.115 3.115 0 001.221 2.057 3.124 3.124 0 003.468.184 3.112 3.112 0 001.433-1.915c.102-.398.124-.812.065-1.218a26.81 26.81 0 00-14.25-21.504l-18.816-8.696a2.275 2.275 0 00-.209-.088 26.25 26.25 0 00-24.483 2.625A51.53 51.53 0 005.212 95.241c-9.637 20.896-5.395 43.459 9.463 50.321L33.5 154.25a22.24 22.24 0 009.37 2.008 28.537 28.537 0 0011.6-2.613 3.124 3.124 0 001.578-4.131 3.127 3.127 0 00-4.131-1.577zm94.995-20.596a3.126 3.126 0 00.075 6.25h.096a22.72 22.72 0 0022.119-24.039 22.73 22.73 0 00-12.939-19.207 22.726 22.726 0 00-30.588 11.467 3.123 3.123 0 001.615 4.115 3.124 3.124 0 004.114-1.615 16.48 16.48 0 0113.604-9.838 16.476 16.476 0 111.921 32.876l-.017-.009z"/><path d="M194.704 27.12a33.42 33.42 0 00-28.287-15.491h-39.48a33.568 33.568 0 00-30.454 47.67l10.538 22.747a49.279 49.279 0 00-5.896 10.62 3.128 3.128 0 001.761 4.003 3.126 3.126 0 004.039-1.677 43.037 43.037 0 016.087-10.534 42.346 42.346 0 019.8-9.079c.025 0 .038-.033.063-.042a42.653 42.653 0 0159.651 13.013 42.642 42.642 0 015.26 32.706 42.658 42.658 0 01-19.736 26.606h-21.383a3.126 3.126 0 000 6.25h22.204a3.11 3.11 0 001.529-.416 48.75 48.75 0 0015.767-71.084l10.708-23.116a33.435 33.435 0 00-2.171-32.175zm-3.5 29.55l-9.458 20.417a49.165 49.165 0 00-6.1-5.362l8.487-18.333a19.516 19.516 0 00-17.716-27.721H162.5a3.125 3.125 0 100 6.25h3.904a13.262 13.262 0 0111.19 6.123 13.265 13.265 0 01.856 12.727l-8.083 17.479a48.838 48.838 0 00-47.45-.213l-8-17.266a13.273 13.273 0 01.854-12.726 13.268 13.268 0 0111.187-6.124h26.213a3.127 3.127 0 003.125-3.125 3.125 3.125 0 00-3.125-3.125h-26.234A19.525 19.525 0 00109.225 53.4l8.358 18.037a48.586 48.586 0 00-6.121 5.321l-9.304-20.091a27.315 27.315 0 011.76-26.188 27.318 27.318 0 0123.019-12.608h39.48a27.313 27.313 0 0124.787 38.791v.009z"/></g><defs><clipPath id="clip0_217_23"><path fill="#fff" d="M0 0h200v200H0z"/></clipPath></defs></svg>